<svg width="154" height="48" viewBox="0 0 154 48" fill="none" xmlns="http://www.w3.org/2000/svg">
<g clip-path="url(#clip0_73_127)">
<path d="M39.1402 0.839569C38.0334 0.286972 20.8996 0.2665 19.8524 0.839569C18.7811 1.42575 18.6132 0.857527 17.8769 1.59384C16.8891 2.6175 14.2211 7.67419 14.2211 7.67419L12.7945 7.30478C10.0648 7.30478 8.48438 8.02314 8.48438 9.2623C8.48438 10.0705 8.86151 10.2321 10.9268 10.3219C11.9504 10.3758 12.7945 10.4655 12.7945 10.5194C12.7945 10.5913 12.5251 10.9145 12.1839 11.2378C11.8427 11.561 11.5194 12.0998 11.4656 12.4051C11.3758 12.8361 11.0525 13.2312 10.1905 13.9496C9.56191 14.4704 8.98722 15.0271 8.89743 15.1887C8.82559 15.3504 8.7358 18.8883 8.69988 23.0547L8.62805 30.6334L9.09498 31.1003C9.52599 31.5314 9.63374 31.5493 11.7709 31.5493C14.3929 31.5493 14.7341 31.4056 14.8957 30.1485L15.0035 29.3763L16.9969 29.502C18.7569 29.6098 19.134 29.5738 20.2475 29.2326C21.0376 28.9812 21.5225 28.9094 21.5585 29.0351C21.6483 29.2865 37.3443 29.2865 37.4341 29.0351C37.47 28.9094 37.9549 28.9812 38.7451 29.2326C39.8586 29.5738 40.2357 29.6098 41.9957 29.502L43.9891 29.3763L44.0969 30.1485C44.2585 31.4056 44.5997 31.5493 47.2217 31.5493C49.3588 31.5493 49.4666 31.5314 49.8976 31.1003L50.3645 30.6334L50.2927 23.0547C50.2568 18.8883 50.167 15.3504 50.0952 15.1887C50.0054 15.0271 49.4307 14.4704 48.8021 13.9496C47.9401 13.2312 47.6168 12.8361 47.527 12.4051C47.4732 12.0998 47.1499 11.561 46.8087 11.2378C46.4675 10.9145 46.1981 10.5913 46.1981 10.5374C46.1981 10.4655 46.7907 10.3937 47.5091 10.3758C49.9515 10.3219 50.5082 10.1064 50.5082 9.2623C50.5082 8.02314 48.9278 7.30478 46.1981 7.30478L44.9347 7.79613C44.9347 7.79613 42.1034 2.6175 41.1157 1.59384C40.3794 0.857527 40.2328 1.38516 39.1402 0.839569ZM35.6921 2.27628C37.2725 2.36608 39.1402 2.49179 39.8406 2.54567L41.1157 2.65342L42.6781 5.83215C43.5222 7.57416 44.2226 9.13659 44.2226 9.31618C44.2226 9.58556 43.0912 9.60352 29.4963 9.60352C15.9014 9.60352 14.77 9.58556 14.77 9.31618C14.77 9.13659 15.4704 7.57416 16.3145 5.83215L17.8769 2.65342L19.152 2.54567C24.0547 2.11465 31.0767 1.98894 35.6921 2.27628ZM13.0819 15.7455C13.6565 15.961 15.3986 16.4279 16.9251 16.823C19.6369 17.5054 19.7446 17.5234 20.5168 17.254C21.1274 17.0385 22.0433 17.0026 24.8809 17.0385C28.3828 17.0924 28.4547 17.0924 28.7959 17.5234C29.2987 18.152 29.2808 20.0915 28.76 20.6123C28.4008 20.9715 28.2392 20.9895 25.4735 20.9176C22.2589 20.8458 21.6123 20.6662 20.5168 19.6246C19.565 18.7087 18.703 18.6369 17.5536 19.3552L16.6736 19.9119L15.0394 19.7144C11.1962 19.2115 10.1546 18.7446 9.99292 17.4516C9.7415 15.5838 10.855 14.9732 13.0819 15.7455ZM48.6944 15.8173C48.8919 16.0328 48.9817 16.4279 48.9817 17.1103C48.9817 17.9724 48.9099 18.1699 48.4968 18.5291C47.958 18.996 46.4136 19.3911 43.9532 19.7144L42.319 19.9119L41.439 19.3552C40.2896 18.6369 39.4276 18.7087 38.4757 19.6246C37.3803 20.6662 36.7337 20.8458 33.5191 20.9176C30.7534 20.9895 30.5918 20.9715 30.2326 20.6123C29.7118 20.0915 29.6938 18.152 30.1967 17.5234C30.5379 17.0924 30.6097 17.0924 34.1117 17.0385C36.9492 17.0026 37.8651 17.0385 38.4757 17.254C39.248 17.5234 39.3557 17.5054 42.0675 16.823C43.594 16.4279 45.3001 15.961 45.8389 15.7634C46.9703 15.3324 48.2274 15.3683 48.6944 15.8173ZM12.597 22.3723C13.2435 23.1805 13.3872 23.2343 17.5357 23.827C18.9185 24.0245 20.0679 24.2221 20.1217 24.258C20.1577 24.2939 19.8703 24.8686 19.5111 25.5151C18.8826 26.5927 18.721 26.7363 17.823 27.0955C17.0328 27.4188 16.494 27.4906 15.1292 27.4906C14.1953 27.4906 13.0819 27.3828 12.6508 27.2571C11.717 26.9878 11.4476 26.4849 11.268 24.7249C11.2141 24.0784 11.1243 23.1266 11.0705 22.6058L10.9807 21.6719H11.5015C11.9145 21.6719 12.1839 21.8335 12.597 22.3723ZM48.3531 21.7976C48.3531 22.7854 47.9221 25.9821 47.7246 26.431C47.4013 27.2212 46.5393 27.4726 44.2226 27.4906C42.8577 27.4906 42.319 27.4188 41.5288 27.0955C40.6308 26.7543 40.4512 26.5747 39.8765 25.587C39.5174 24.9584 39.2839 24.3837 39.3737 24.3119C39.4455 24.2221 40.5769 24.0066 41.9059 23.809C45.9466 23.2343 46.1083 23.1805 46.7548 22.3723C47.1679 21.8515 47.4372 21.6719 47.8323 21.6719C48.1197 21.6719 48.3531 21.7258 48.3531 21.7976ZM37.1647 24.3478C37.7215 24.5633 38.8708 26.018 39.0863 26.7902C39.3916 27.8498 38.1704 28.0114 29.9453 28.0294C22.7437 28.0473 20.7323 27.9216 20.1397 27.4367C19.7626 27.1314 19.7626 27.1135 20.0679 26.4669C20.2295 26.1078 20.6785 25.4612 21.0376 25.0482C21.6842 24.3298 21.774 24.2939 23.049 24.1682C25.2041 23.9527 36.5003 24.0964 37.1647 24.3478Z" fill="white" fill-opacity="0.48"/>
<path fill-rule="evenodd" clip-rule="evenodd" d="M59.6983 2.77527C50.656 11.2747 49.6643 28.8307 39.1152 30.6603C38.1931 28.3939 36.8089 27.4063 34.7474 26.768C31.4382 27.941 28.4157 29.7336 25.6365 32.0517C25.3867 34.7377 27.8268 34.2142 33.0101 31.8499C34.906 34.4326 37.5799 36.9878 39.7891 38.9773C55.3861 34.2773 55.0967 14.0774 59.6983 2.77527Z" fill="#00AFFF"/>
<path fill-rule="evenodd" clip-rule="evenodd" d="M17.969 39.5472C18.1924 40.7712 18.6034 41.9275 19.3722 42.9546C20.0632 43.4546 20.5824 43.3754 21.0007 42.9546C20.813 44.6743 21.36 45.2636 22.3411 45.1857C22.6818 46.6422 23.478 47.4012 24.6611 47.5686C26.4004 47.3662 27.1741 46.6098 27.0685 45.3495C27.3219 44.4493 26.5443 43.9438 25.6192 43.4945C25.5434 42.5534 24.8871 41.8209 23.5928 41.318C23.652 40.0518 23.0706 39.1679 22.1981 38.4577C20.3879 36.2471 19.0521 37.0839 17.969 39.5472Z" fill="#00AFFF"/>
<path fill-rule="evenodd" clip-rule="evenodd" d="M29.0714 26.9596C25.6052 26.4495 22.7746 27.7039 20.4703 30.4203C9.87805 28.1803 7.83004 10.8856 0 2.77527C3.03522 13.5823 2.57906 33.7757 16.9154 37.6882L19.1247 35.8881L22.8783 36.6278C23.5555 38.9916 24.8011 41.2061 27.8258 42.9546L28.3765 45.2599C28.8382 46.6059 29.8147 47.0584 31.1881 46.821C31.7548 45.7949 32.5971 45.41 33.6412 45.4944C34.3897 44.2253 35.5221 43.7185 36.8592 43.6187C36.9907 42.5661 38.1136 41.832 39.7892 41.2761C37.0188 39.523 34.5764 37.3089 32.8747 33.9424C31.8525 33.6893 30.4199 34.1455 28.4926 35.4574C27.3154 35.5173 26.1755 35.2534 25.08 34.599C23.4296 33.037 23.2586 31.7227 24.2707 30.606C28.1316 29.1689 30.0331 27.924 29.0714 26.9596Z" fill="white"/>
<path d="M75.1685 31.8665C75.3995 31.8876 75.7035 31.903 76.0815 31.9136C76.4595 31.9241 76.9739 31.9294 77.6247 31.9294C80.2914 31.9294 82.2808 31.2522 83.5934 29.8982C84.9056 28.5438 85.5617 26.649 85.5617 24.2134C85.5617 21.7355 84.9215 19.8354 83.6405 18.5127C82.3595 17.19 80.3754 16.5286 77.6881 16.5286C76.5124 16.5286 75.6723 16.5598 75.1685 16.6227V31.8665ZM89.7192 24.2134C89.7192 26.1029 89.4252 27.746 88.8374 29.1422C88.2495 30.5385 87.4147 31.7037 86.3336 32.6383C85.2519 33.5725 83.9503 34.2656 82.4277 34.7166C80.9057 35.1681 79.2208 35.3938 77.3731 35.3938C76.4912 35.3938 75.4937 35.3573 74.3808 35.2838C73.2679 35.2103 72.2079 35.0581 71.1998 34.8271V13.6309C72.2079 13.3999 73.2785 13.2529 74.4125 13.19C75.5465 13.1271 76.5542 13.0954 77.436 13.0954C79.2626 13.0954 80.9321 13.3106 82.4436 13.7409C83.9556 14.1713 85.2519 14.8432 86.3336 15.7567C87.4147 16.6703 88.2495 17.8249 88.8374 19.2211C89.4252 20.6174 89.7192 22.2816 89.7192 24.2134Z" fill="white"/>
<path d="M101.687 22.103C101.372 21.9978 100.937 21.8878 100.38 21.7725C99.8237 21.6568 99.1782 21.5991 98.4433 21.5991C98.0231 21.5991 97.5774 21.6409 97.1047 21.725C96.6321 21.809 96.3017 21.8825 96.1124 21.9454V35.1421H92.3017V19.4575C93.0366 19.1847 93.9549 18.9272 95.0577 18.6856C96.16 18.4445 97.3828 18.3235 98.7267 18.3235C98.9789 18.3235 99.2723 18.3393 99.6085 18.371C99.9443 18.4023 100.28 18.4445 100.616 18.4969C100.952 18.5492 101.278 18.6121 101.593 18.6856C101.908 18.7591 102.16 18.8273 102.349 18.8907L101.687 22.103Z" fill="white"/>
<path d="M107.262 35.1421H103.451V18.6697H107.262V35.1421ZM107.671 13.8514C107.671 14.5651 107.44 15.1319 106.978 15.5521C106.517 15.9719 105.971 16.1818 105.34 16.1818C104.69 16.1818 104.133 15.9719 103.671 15.5521C103.209 15.1319 102.978 14.5651 102.978 13.8514C102.978 13.1165 103.209 12.5392 103.671 12.1189C104.133 11.6992 104.69 11.4893 105.34 11.4893C105.971 11.4893 106.517 11.6992 106.978 12.1189C107.44 12.5392 107.671 13.1165 107.671 13.8514Z" fill="white"/>
<path d="M114.758 35.1421C113.708 32.9793 112.632 30.4962 111.53 27.6931C110.427 24.8901 109.424 21.8825 108.521 18.6697H112.584C112.815 19.5938 113.083 20.5861 113.388 21.6462C113.692 22.7067 114.018 23.7672 114.364 24.8272C114.711 25.8877 115.067 26.9165 115.435 27.9136C115.802 28.9112 116.143 29.8089 116.458 30.6066C116.774 29.8089 117.109 28.9112 117.466 27.9136C117.823 26.9165 118.175 25.8877 118.521 24.8272C118.868 23.7672 119.199 22.7067 119.514 21.6462C119.828 20.5861 120.102 19.5938 120.333 18.6697H124.269C123.367 21.8825 122.364 24.8901 121.261 27.6931C120.159 30.4962 119.083 32.9793 118.033 35.1421H114.758Z" fill="white"/>
<path d="M124.238 26.9847C124.238 25.5361 124.453 24.2658 124.883 23.174C125.314 22.0818 125.886 21.1741 126.6 20.4498C127.314 19.725 128.133 19.1794 129.057 18.8119C129.98 18.4445 130.925 18.2606 131.891 18.2606C134.158 18.2606 135.927 18.9642 137.198 20.371C138.468 21.7778 139.103 23.8772 139.103 26.6697C139.103 26.8795 139.098 27.1159 139.088 27.3786C139.077 27.6408 139.061 27.8771 139.04 28.087H128.174C128.28 29.4098 128.747 30.4333 129.576 31.1576C130.405 31.8823 131.608 32.2445 133.182 32.2445C134.106 32.2445 134.951 32.1604 135.718 31.9923C136.484 31.8247 137.088 31.646 137.529 31.4568L138.033 34.5749C137.823 34.6801 137.534 34.7901 137.167 34.9058C136.799 35.0211 136.379 35.1263 135.907 35.2209C135.434 35.3151 134.925 35.3938 134.379 35.4567C133.833 35.5201 133.277 35.5514 132.71 35.5514C131.261 35.5514 130.001 35.3362 128.93 34.9058C127.86 34.4755 126.978 33.877 126.285 33.1105C125.592 32.3444 125.077 31.4414 124.742 30.4021C124.405 29.3627 124.238 28.2234 124.238 26.9847ZM135.292 25.284C135.292 24.759 135.219 24.2605 135.072 23.7879C134.925 23.3157 134.71 22.906 134.426 22.5597C134.143 22.2134 133.796 21.9401 133.387 21.7408C132.977 21.5415 132.489 21.4416 131.923 21.4416C131.335 21.4416 130.82 21.5516 130.379 21.7725C129.939 21.993 129.566 22.2816 129.261 22.6385C128.957 22.9954 128.72 23.4046 128.552 23.8666C128.385 24.3287 128.269 24.8013 128.206 25.284H135.292Z" fill="white"/>
<path d="M147.292 35.4567C146.158 35.4361 145.219 35.3098 144.473 35.0792C143.728 34.8482 143.135 34.5173 142.694 34.0869C142.253 33.6566 141.943 33.121 141.765 32.4808C141.586 31.8401 141.497 31.1105 141.497 30.2916V11.3317L145.308 10.7016V29.5673C145.308 30.0293 145.345 30.4179 145.418 30.7325C145.492 31.0476 145.623 31.3151 145.812 31.5356C146.001 31.756 146.258 31.9241 146.583 32.0399C146.909 32.1552 147.323 32.2445 147.827 32.3074L147.292 35.4567Z" fill="white"/>
<path d="M153.182 35.1421H149.371V18.6697H153.182V35.1421ZM153.591 13.8514C153.591 14.5651 153.36 15.1319 152.898 15.5521C152.436 15.9719 151.89 16.1818 151.261 16.1818C150.61 16.1818 150.053 15.9719 149.591 15.5521C149.129 15.1319 148.898 14.5651 148.898 13.8514C148.898 13.1165 149.129 12.5392 149.591 12.1189C150.053 11.6992 150.61 11.4893 151.261 11.4893C151.89 11.4893 152.436 11.6992 152.898 12.1189C153.36 12.5392 153.591 13.1165 153.591 13.8514Z" fill="white"/>
</g>
<defs>
<clipPath id="clip0_73_127">
<rect width="153.6" height="48" fill="white"/>
</clipPath>
</defs>
</svg>
